<svg width='24' height='24' viewBox='0 0 24 24' xmlns='http://www.w3.org/2000/svg' xmlns:xlink='http://www.w3.org/1999/xlink'><rect width='24' height='24' stroke='none' fill='#000000' opacity='0'/>


<g transform="matrix(0.48 0 0 0.48 12 12)" >
<path style="stroke: none; stroke-width: 1; stroke-dasharray: none; stroke-linecap: butt; stroke-dashoffset: 0; stroke-linejoin: miter; stroke-miterlimit: 4; fill: rgb(0,0,0); fill-rule: nonzero; opacity: 1;" transform=" translate(-25, -25)" d="M 10 4 C 6.6983746 4 4 6.6983746 4 10 L 4 15 C 3.994899710454515 15.36063591657757 4.184375296169332 15.696081364571606 4.495872849714331 15.877887721486518 C 4.80737040325933 16.059694078401428 5.192629596740671 16.059694078401428 5.50412715028567 15.877887721486516 C 5.815624703830668 15.696081364571606 6.005100289545485 15.360635916577568 6 15 L 6 10 C 6 7.7796254 7.7796254 6 10 6 L 15 6 C 15.36063591657757 6.005100289545485 15.696081364571606 5.815624703830668 15.877887721486516 5.50412715028567 C 16.059694078401428 5.19262959674067 16.059694078401428 4.80737040325933 15.877887721486516 4.495872849714331 C 15.696081364571606 4.184375296169332 15.36063591657757 3.994899710454515 15 4 L 10 4 z M 35 4 C 34.63936408342243 3.994899710454515 34.303918635428396 4.184375296169332 34.122112278513484 4.495872849714331 C 33.94030592159857 4.80737040325933 33.94030592159857 5.192629596740671 34.122112278513484 5.504127150285671 C 34.303918635428396 5.815624703830669 34.63936408342243 6.005100289545485 35 6 L 40 6 C 42.220375 6 44 7.7796254 44 10 L 44 15 C 43.99489971045452 15.36063591657757 44.184375296169335 15.696081364571606 44.49587284971433 15.877887721486518 C 44.80737040325933 16.059694078401428 45.19262959674067 16.059694078401428 45.50412715028567 15.877887721486516 C 45.81562470383067 15.696081364571606 46.00510028954548 15.360635916577568 46 15 L 46 10 C 46 6.6983746 43.301625 4 40 4 L 35 4 z M 15.984375 17.986328 C 15.43285880343316 17.994949073062962 14.992447279873389 18.448468138368238 15 19 L 15 22 C 14.994899710454515 22.360635916577568 15.184375296169332 22.696081364571608 15.495872849714331 22.877887721486516 C 15.80737040325933 23.059694078401428 16.19262959674067 23.059694078401428 16.50412715028567 22.877887721486516 C 16.815624703830668 22.696081364571608 17.005100289545485 22.360635916577568 17 22 L 17 19 C 17.0037014610102 18.729699667173673 16.897823324754008 18.46941334607979 16.706490332869745 18.27844827870817 C 16.515157340985482 18.087483211336544 16.25466770753046 17.98210627103109 15.984375 17.986328 z M 25.984375 17.986328 C 25.43285880343316 17.994949073062962 24.99244727987339 18.448468138368238 25 19 L 25 27 C 25 27.56503 24.56503 28 24 28 L 23 28 C 22.639364083422432 27.994899710454515 22.303918635428392 28.184375296169332 22.122112278513484 28.49587284971433 C 21.940305921598572 28.80737040325933 21.940305921598572 29.192629596740673 22.122112278513484 29.50412715028567 C 22.303918635428396 29.815624703830668 22.639364083422432 30.005100289545485 23 30 L 24 30 C 25.64497 30 27 28.64497 27 27 L 27 19 C 27.0037014610102 18.729699667173673 26.897823324754008 18.46941334607979 26.706490332869745 18.27844827870817 C 26.515157340985482 18.087483211336544 26.25466770753046 17.98210627103109 25.984375 17.986328 z M 33.984375 17.986328 C 33.43285880343316 17.994949073062962 32.99244727987339 18.448468138368238 33 19 L 33 22 C 32.99489971045452 22.360635916577568 33.184375296169335 22.696081364571608 33.49587284971433 22.877887721486516 C 33.80737040325933 23.059694078401428 34.19262959674067 23.059694078401428 34.50412715028567 22.877887721486516 C 34.81562470383067 22.696081364571608 35.00510028954548 22.360635916577568 35 22 L 35 19 C 35.003701461010195 18.729699667173673 34.89782332475401 18.46941334607979 34.70649033286975 18.27844827870817 C 34.51515734098548 18.087483211336544 34.25466770753046 17.98210627103109 33.984375 17.986328 z M 4.984375 32.986328 C 4.4328588034331595 32.99494907306296 3.992447279873388 33.448468138368234 4 34 L 4 40 C 4 43.301625 6.6983746 46 10 46 L 15 46 C 15.36063591657757 46.00510028954548 15.696081364571606 45.81562470383067 15.877887721486516 45.50412715028567 C 16.059694078401428 45.19262959674067 16.059694078401428 44.80737040325933 15.877887721486516 44.49587284971433 C 15.696081364571606 44.184375296169335 15.36063591657757 43.99489971045452 15 44 L 10 44 C 7.7796254 44 6 42.220375 6 40 L 6 34 C 6.0037014610101975 33.729699667173676 5.897823324754008 33.46941334607979 5.706490332869745 33.27844827870817 C 5.515157340985481 33.08748321133654 5.254667707530458 32.982106271031085 4.984375 32.986328 z M 30.990234 32.986328 C 30.72646288845357 32.99256430900964 30.475842560808417 33.10278132533691 30.292969 33.292969 C 30.292969 33.292969 29.933477 33.665097 29.052734 34.105469 C 28.171991 34.54584 26.833333 35 25 35 C 23.166667 35 21.828009 34.54584 20.947266 34.105469 C 20.066523 33.665097 19.707031 33.292969 19.707031 33.292969 C 19.51875998115552 33.0994359864488 19.260235858549077 32.990249842732716 18.990234 32.990234 C 18.58331093338813 32.99034102751708 18.217025100118086 33.23698971650618 18.063903235086286 33.6140044218492 C 17.910781370054487 33.99101912719222 18.001357595904953 34.42321912111292 18.292969 34.707031 C 18.292969 34.707031 18.933477 35.334903 20.052734 35.894531 C 21.171991 36.45416 22.833333 37 25 37 C 27.166667 37 28.828009 36.45416 29.947266 35.894531 C 31.066523 35.334903 31.707031 34.707031 31.707031 34.707031 C 32.00427300446327 34.4212017439722 32.09560262953893 33.98223453864796 31.93702842550951 33.60157012655354 C 31.778454221480086 33.22090571445913 31.402491839666666 32.976599359184014 30.990234 32.986328 z M 44.984375 32.986328 C 44.43285880343316 32.99494907306296 43.99244727987339 33.448468138368234 44 34 L 44 40 C 44 42.220375 42.220375 44 40 44 L 35 44 C 34.63936408342243 43.99489971045452 34.303918635428396 44.184375296169335 34.122112278513484 44.49587284971433 C 33.94030592159857 44.80737040325933 33.94030592159857 45.19262959674067 34.122112278513484 45.50412715028567 C 34.303918635428396 45.81562470383067 34.63936408342243 46.00510028954548 35 46 L 40 46 C 43.301625 46 46 43.301625 46 40 L 46 34 C 46.003701461010195 33.729699667173676 45.89782332475401 33.46941334607979 45.70649033286975 33.27844827870817 C 45.51515734098548 33.08748321133654 45.25466770753046 32.982106271031085 44.984375 32.986328 z" stroke-linecap="round" />
</g>
</svg>